<svg width="20" height="20" viewBox="0 0 20 20" fill="none" xmlns="http://www.w3.org/2000/svg">
<path d="M16.5882 15.1333H15.902V3.43333C15.902 3.31841 15.8586 3.20819 15.7814 3.12692C15.7041 3.04565 15.5994 3 15.4902 3H11.6471C11.5379 3 11.4331 3.04565 11.3559 3.12692C11.2787 3.20819 11.2353 3.31841 11.2353 3.43333V6.46667H7.80392C7.69472 6.46667 7.58998 6.51232 7.51276 6.59359C7.43554 6.67485 7.39216 6.78507 7.39216 6.9V9.93333H4.5098C4.4006 9.93333 4.29586 9.97899 4.21864 10.0603C4.14142 10.1415 4.09804 10.2517 4.09804 10.3667V15.1333H3.41176C3.30256 15.1333 3.19782 15.179 3.1206 15.2603C3.04338 15.3415 3 15.4517 3 15.5667C3 15.6816 3.04338 15.7918 3.1206 15.8731C3.19782 15.9543 3.30256 16 3.41176 16H16.5882C16.6974 16 16.8022 15.9543 16.8794 15.8731C16.9566 15.7918 17 15.6816 17 15.5667C17 15.4517 16.9566 15.3415 16.8794 15.2603C16.8022 15.179 16.6974 15.1333 16.5882 15.1333ZM12.0588 3.86667H15.0784V15.1333H12.0588V3.86667ZM8.21569 7.33333H11.2353V15.1333H8.21569V7.33333ZM4.92157 10.8H7.39216V15.1333H4.92157V10.8Z" fill="white"/>
</svg>
