<svg width="14" height="14" viewBox="0 0 14 14" fill="none" xmlns="http://www.w3.org/2000/svg">
<path fill-rule="evenodd" clip-rule="evenodd" d="M12.8605 0H8.95349C8.65126 0 8.36142 0.120058 8.14772 0.333762C7.93401 0.547466 7.81395 0.837311 7.81395 1.13953V5.04651C7.81395 5.19616 7.84343 5.34434 7.9007 5.48259C7.95796 5.62085 8.0419 5.74647 8.14772 5.85228C8.25353 5.9581 8.37915 6.04204 8.51741 6.0993C8.65566 6.15657 8.80384 6.18605 8.95349 6.18605H12.8605C13.0101 6.18605 13.1583 6.15657 13.2965 6.0993C13.4348 6.04204 13.5604 5.9581 13.6662 5.85228C13.7721 5.74647 13.856 5.62085 13.9133 5.48259C13.9705 5.34434 14 5.19616 14 5.04651V1.13953C14 0.837311 13.8799 0.547466 13.6662 0.333762C13.4525 0.120058 13.1627 0 12.8605 0Z" fill="white"/>
<path fill-rule="evenodd" clip-rule="evenodd" d="M1.13953 7.81395H5.04651C5.19616 7.81395 5.34434 7.84343 5.48259 7.9007C5.62085 7.95796 5.74647 8.0419 5.85228 8.14772C5.9581 8.25353 6.04204 8.37915 6.0993 8.51741C6.15657 8.65566 6.18605 8.80384 6.18605 8.95349V12.8605C6.18605 13.0101 6.15657 13.1583 6.0993 13.2965C6.04204 13.4348 5.9581 13.5604 5.85228 13.6662C5.74647 13.7721 5.62085 13.856 5.48259 13.9133C5.34434 13.9705 5.19616 14 5.04651 14H1.13953C0.837311 14 0.547466 13.8799 0.333762 13.6662C0.120058 13.4525 0 13.1627 0 12.8605V8.95349C0 8.65126 0.120058 8.36142 0.333762 8.14772C0.547466 7.93401 0.837311 7.81395 1.13953 7.81395Z" fill="white"/>
<path fill-rule="evenodd" clip-rule="evenodd" d="M5.04651 0H1.13953C0.837311 0 0.547466 0.120058 0.333762 0.333762C0.120058 0.547466 0 0.837311 0 1.13953V5.04651C0 5.19616 0.0294748 5.34434 0.0867418 5.48259C0.144009 5.62085 0.227947 5.74647 0.333762 5.85228C0.439578 5.9581 0.565199 6.04204 0.703454 6.0993C0.841709 6.15657 0.989889 6.18605 1.13953 6.18605H5.04651C5.19616 6.18605 5.34434 6.15657 5.48259 6.0993C5.62085 6.04204 5.74647 5.9581 5.85228 5.85228C5.9581 5.74647 6.04204 5.62085 6.0993 5.48259C6.15657 5.34434 6.18605 5.19616 6.18605 5.04651V1.13953C6.18605 0.989889 6.15657 0.841709 6.0993 0.703454C6.04204 0.565199 5.9581 0.439578 5.85228 0.333762C5.74647 0.227947 5.62085 0.144009 5.48259 0.0867418C5.34434 0.0294748 5.19616 0 5.04651 0Z" fill="white"/>
<path fill-rule="evenodd" clip-rule="evenodd" d="M8.95349 7.81395H12.8605C13.1627 7.81395 13.4525 7.93401 13.6662 8.14772C13.8799 8.36142 14 8.65126 14 8.95349V12.8605C14 13.1627 13.8799 13.4525 13.6662 13.6662C13.4525 13.8799 13.1627 14 12.8605 14H8.95349C8.65126 14 8.36142 13.8799 8.14772 13.6662C7.93401 13.4525 7.81395 13.1627 7.81395 12.8605V8.95349C7.81395 8.65126 7.93401 8.36142 8.14772 8.14772C8.36142 7.93401 8.65126 7.81395 8.95349 7.81395Z" fill="white"/>
</svg>
