<svg width="12" height="13" viewBox="0 0 12 13" fill="none" xmlns="http://www.w3.org/2000/svg">
<path d="M10.2629 1.77686C9.71089 1.21644 9.05417 0.770999 8.33041 0.466084C7.60666 0.161169 6.8301 0.00278009 6.04527 0H5.99998C4.40869 0 2.88257 0.635014 1.75735 1.76535C0.632139 2.89568 0 4.42874 0 6.02727V9.33636C0 9.68114 0.136344 10.0118 0.379037 10.2556C0.62173 10.4994 0.950893 10.6364 1.29411 10.6364H2.23529C2.57851 10.6364 2.90767 10.4994 3.15036 10.2556C3.39306 10.0118 3.5294 9.68114 3.5294 9.33636V6.97273C3.5294 6.62795 3.39306 6.29729 3.15036 6.05349C2.90767 5.80969 2.57851 5.67273 2.23529 5.67273H0.717645C0.807177 4.32663 1.40263 3.06503 2.38341 2.14342C3.36419 1.22181 4.65699 0.709088 5.99998 0.709091H6.03998C7.37734 0.715053 8.66257 1.23089 9.63583 2.1523C10.6091 3.07372 11.1978 4.33199 11.2829 5.67273H9.76467C9.42145 5.67273 9.09229 5.80969 8.8496 6.05349C8.6069 6.29729 8.47056 6.62795 8.47056 6.97273V9.33636C8.47056 9.68114 8.6069 10.0118 8.8496 10.2556C9.09229 10.4994 9.42145 10.6364 9.76467 10.6364H11.2941V10.7545C11.2941 11.162 11.1329 11.5528 10.8461 11.8409C10.5593 12.129 10.1703 12.2909 9.76467 12.2909H6.47057C6.37696 12.2909 6.28719 12.3283 6.221 12.3948C6.15481 12.4612 6.11763 12.5514 6.11763 12.6455C6.11763 12.7395 6.15481 12.8297 6.221 12.8962C6.28719 12.9626 6.37696 13 6.47057 13H9.76467C10.3575 13 10.9261 12.7634 11.3453 12.3423C11.7645 11.9212 12 11.3501 12 10.7545V6.02727C12.0029 5.23885 11.851 4.45759 11.5529 3.72824C11.2549 2.99888 10.8165 2.33577 10.2629 1.77686ZM2.23529 6.38182C2.3913 6.38182 2.54091 6.44407 2.65123 6.55489C2.76154 6.66571 2.82352 6.81601 2.82352 6.97273V9.33636C2.82352 9.49308 2.76154 9.64338 2.65123 9.7542C2.54091 9.86502 2.3913 9.92727 2.23529 9.92727H1.29411C1.1381 9.92727 0.988485 9.86502 0.878169 9.7542C0.767854 9.64338 0.70588 9.49308 0.70588 9.33636V6.38182H2.23529ZM9.17644 9.33636V6.97273C9.17644 6.81601 9.23841 6.66571 9.34873 6.55489C9.45904 6.44407 9.60866 6.38182 9.76467 6.38182H11.2941V9.92727H9.76467C9.60866 9.92727 9.45904 9.86502 9.34873 9.7542C9.23841 9.64338 9.17644 9.49308 9.17644 9.33636Z" fill="white"/>
</svg>
