<svg width="25" height="25" viewBox="0 0 25 25" fill="none" xmlns="http://www.w3.org/2000/svg">
<path d="M25 12.5C25 19.4036 19.4036 25 12.5 25C5.59644 25 0 19.4036 0 12.5C0 5.59644 5.59644 0 12.5 0C19.4036 0 25 5.59644 25 12.5ZM3.125 12.5C3.125 17.6777 7.32233 21.875 12.5 21.875C17.6777 21.875 21.875 17.6777 21.875 12.5C21.875 7.32233 17.6777 3.125 12.5 3.125C7.32233 3.125 3.125 7.32233 3.125 12.5Z" fill="#1C1B20"/>
<path d="M12.5 0C14.9723 2.94815e-08 17.389 0.733112 19.4446 2.10663C21.5002 3.48015 23.1024 5.43238 24.0485 7.71646C24.9946 10.0005 25.2421 12.5139 24.7598 14.9386C24.2775 17.3634 23.087 19.5907 21.3388 21.3388C19.5907 23.087 17.3634 24.2775 14.9386 24.7598C12.5139 25.2421 10.0005 24.9946 7.71646 24.0485C5.43238 23.1024 3.48015 21.5002 2.10663 19.4446C0.733112 17.389 -5.8963e-08 14.9723 0 12.5H3.125C3.125 14.3542 3.67483 16.1668 4.70497 17.7085C5.73511 19.2502 7.19929 20.4518 8.91234 21.1614C10.6254 21.8709 12.5104 22.0566 14.329 21.6949C16.1475 21.3331 17.818 20.4402 19.1291 19.1291C20.4402 17.818 21.3331 16.1475 21.6949 14.329C22.0566 12.5104 21.8709 10.6254 21.1614 8.91234C20.4518 7.19929 19.2502 5.73511 17.7085 4.70497C16.1668 3.67483 14.3542 3.125 12.5 3.125V0Z" fill="#E85102"/>
</svg>
