<svg width="14" height="14" viewBox="0 0 14 14" fill="none" xmlns="http://www.w3.org/2000/svg">
<path d="M14 1.04255V8.78723C14 9.06374 13.8902 9.32891 13.6946 9.52443C13.4991 9.71995 13.2339 9.82979 12.9574 9.82979H4.50457L5.52851 10.8545C5.57241 10.8954 5.60762 10.9447 5.63204 10.9995C5.65646 11.0543 5.66959 11.1135 5.67065 11.1735C5.67171 11.2335 5.66067 11.2931 5.6382 11.3487C5.61573 11.4043 5.58228 11.4549 5.53985 11.4973C5.49742 11.5397 5.44689 11.5732 5.39125 11.5956C5.33561 11.6181 5.27602 11.6292 5.21603 11.6281C5.15604 11.627 5.09687 11.6139 5.04206 11.5895C4.98725 11.5651 4.93793 11.5299 4.89702 11.486L3.10979 9.69872C3.02611 9.61495 2.97912 9.50138 2.97912 9.38298C2.97912 9.26457 3.02611 9.15101 3.10979 9.06723L4.89702 7.28C4.98172 7.20108 5.09375 7.15811 5.2095 7.16015C5.32526 7.16219 5.4357 7.20909 5.51756 7.29095C5.59942 7.37281 5.64632 7.48325 5.64836 7.59901C5.6504 7.71476 5.60743 7.82679 5.52851 7.91149L4.50457 8.93617H12.9574C12.9969 8.93617 13.0348 8.92048 13.0628 8.89255C13.0907 8.86462 13.1064 8.82673 13.1064 8.78723V1.04255C13.1064 1.00305 13.0907 0.96517 13.0628 0.937239C13.0348 0.909308 12.9969 0.893617 12.9574 0.893617H4.61702C4.57752 0.893617 4.53964 0.909308 4.51171 0.937239C4.48378 0.96517 4.46808 1.00305 4.46808 1.04255V1.6383C4.46808 1.7568 4.42101 1.87045 4.33722 1.95424C4.25342 2.03803 4.13978 2.08511 4.02128 2.08511C3.90278 2.08511 3.78913 2.03803 3.70534 1.95424C3.62154 1.87045 3.57447 1.7568 3.57447 1.6383V1.04255C3.57447 0.766051 3.68431 0.500873 3.87982 0.305357C4.07534 0.10984 4.34052 0 4.61702 0H12.9574C13.2339 0 13.4991 0.10984 13.6946 0.305357C13.8902 0.500873 14 0.766051 14 1.04255ZM9.97872 11.9149C9.86022 11.9149 9.74657 11.962 9.66278 12.0458C9.57899 12.1296 9.53191 12.2432 9.53191 12.3617V12.9574C9.53191 12.9969 9.51622 13.0348 9.48829 13.0628C9.46036 13.0907 9.42248 13.1064 9.38298 13.1064H1.04255C1.00305 13.1064 0.96517 13.0907 0.937239 13.0628C0.909308 13.0348 0.893617 12.9969 0.893617 12.9574V5.21277C0.893617 5.17327 0.909308 5.13538 0.937239 5.10745C0.96517 5.07952 1.00305 5.06383 1.04255 5.06383H9.49543L8.47149 6.08851C8.42759 6.12942 8.39238 6.17874 8.36796 6.23355C8.34354 6.28836 8.33041 6.34753 8.32935 6.40752C8.32829 6.46751 8.33933 6.5271 8.3618 6.58274C8.38427 6.63837 8.41772 6.68891 8.46015 6.73134C8.50258 6.77377 8.55311 6.80722 8.60875 6.82969C8.66439 6.85216 8.72398 6.8632 8.78397 6.86214C8.84396 6.86108 8.90313 6.84795 8.95794 6.82353C9.01275 6.79911 9.06207 6.7639 9.10298 6.72L10.8902 4.93277C10.9739 4.84899 11.0209 4.73543 11.0209 4.61702C11.0209 4.49862 10.9739 4.38505 10.8902 4.30128L9.10298 2.51404C9.01828 2.43512 8.90625 2.39215 8.7905 2.39419C8.67474 2.39624 8.5643 2.44313 8.48244 2.52499C8.40057 2.60685 8.35368 2.7173 8.35164 2.83305C8.3496 2.9488 8.39256 3.06083 8.47149 3.14553L9.49543 4.17021H1.04255C0.766051 4.17021 0.500873 4.28005 0.305357 4.47557C0.10984 4.67109 0 4.93626 0 5.21277V12.9574C0 13.2339 0.10984 13.4991 0.305357 13.6946C0.500873 13.8902 0.766051 14 1.04255 14H9.38298C9.65948 14 9.92466 13.8902 10.1202 13.6946C10.3157 13.4991 10.4255 13.2339 10.4255 12.9574V12.3617C10.4255 12.2432 10.3785 12.1296 10.2947 12.0458C10.2109 11.962 10.0972 11.9149 9.97872 11.9149Z" fill="white"/>
</svg>
