<svg width="16" height="15" viewBox="0 0 16 15" fill="none" xmlns="http://www.w3.org/2000/svg">
<path d="M8.00073 4.11769C7.33901 4.11769 6.69216 4.31606 6.14196 4.68772C5.59177 5.05937 5.16294 5.58762 4.90972 6.20566C4.65649 6.82371 4.59024 7.50378 4.71933 8.15989C4.84842 8.816 5.16707 9.41867 5.63497 9.8917C6.10287 10.3647 6.69902 10.6869 7.34802 10.8174C7.99701 10.9479 8.66972 10.8809 9.28106 10.6249C9.89241 10.3689 10.4149 9.93538 10.7826 9.37916C11.1502 8.82293 11.3464 8.16899 11.3464 7.50003C11.3453 6.60334 10.9924 5.7437 10.3652 5.10964C9.73802 4.47559 8.8877 4.11886 8.00073 4.11769ZM8.00073 10C7.51163 10 7.03352 9.8534 6.62686 9.57869C6.22019 9.30399 5.90324 8.91355 5.71607 8.45673C5.5289 7.99992 5.47993 7.49726 5.57535 7.0123C5.67076 6.52735 5.90628 6.0819 6.25212 5.73227C6.59796 5.38264 7.03859 5.14454 7.51829 5.04808C7.99798 4.95161 8.4952 5.00112 8.94706 5.19034C9.39892 5.37956 9.78514 5.69999 10.0569 6.11111C10.3286 6.52223 10.4736 7.00558 10.4736 7.50003C10.4736 8.16307 10.2131 8.79895 9.74933 9.26779C9.28557 9.73663 8.65658 10 8.00073 10ZM15.8558 6.00004C15.8432 5.93855 15.8177 5.88051 15.781 5.82979C15.7444 5.77907 15.6975 5.73684 15.6434 5.70592L13.4295 4.42798L13.3989 4.37578L13.3902 1.85299C13.3902 1.78927 13.3765 1.7263 13.3502 1.66842C13.3238 1.61054 13.2853 1.55912 13.2374 1.5177C12.4642 0.856729 11.574 0.349985 10.614 0.0243264C10.5563 0.00470926 10.4951 -0.00248118 10.4345 0.00321734C10.3739 0.00891586 10.3151 0.0273773 10.262 0.0574146L8.03418 1.31329H7.96145L5.73948 0.0559439C5.68609 0.025818 5.62704 0.00737049 5.56614 0.00179707C5.50525 -0.00377634 5.44388 0.00364873 5.386 0.0235911C4.42609 0.350199 3.53631 0.858227 2.76401 1.52064C2.71593 1.56184 2.67726 1.61308 2.65064 1.67084C2.62402 1.72859 2.61009 1.79149 2.60981 1.8552L2.59818 4.38019C2.58799 4.3971 2.57781 4.41475 2.56836 4.43239L0.357296 5.70371C0.302959 5.7351 0.255936 5.77794 0.219417 5.82933C0.182898 5.88071 0.157739 5.93943 0.145646 6.00151C-0.0485485 6.99137 -0.0485485 8.01016 0.145646 9.00002C0.1583 9.0615 0.183793 9.11954 0.220418 9.17027C0.257043 9.22099 0.303957 9.26322 0.358024 9.29414L2.57054 10.5684L2.60109 10.6206L2.60981 13.1434C2.60946 13.2078 2.62308 13.2716 2.64972 13.3302C2.67636 13.3887 2.71537 13.4407 2.76401 13.4824C3.53725 14.1433 4.42746 14.6501 5.38746 14.9757C5.44517 14.9953 5.50631 15.0025 5.56693 14.9968C5.62756 14.9911 5.68633 14.9727 5.73948 14.9426L7.96581 13.6868H8.03855L10.2612 14.9441C10.3263 14.9805 10.3993 14.9997 10.4736 15C10.5214 15.0002 10.5688 14.9922 10.614 14.9765C11.5726 14.6494 12.4611 14.1414 13.2324 13.4794C13.2804 13.4382 13.3191 13.387 13.3457 13.3292C13.3723 13.2715 13.3863 13.2086 13.3865 13.1449L13.3982 10.6199C13.4084 10.603 13.4185 10.5853 13.428 10.5677L15.6405 9.29634C15.695 9.26503 15.7422 9.22223 15.7788 9.17084C15.8155 9.11946 15.8407 9.06069 15.8529 8.99855C16.0481 8.00888 16.049 6.99009 15.8558 6.00004ZM15.0376 8.63164L12.8971 9.86031C12.8277 9.90046 12.7703 9.95891 12.7312 10.0294C12.6883 10.103 12.6432 10.1846 12.5959 10.2603C12.5529 10.33 12.53 10.4105 12.5298 10.4927L12.5181 12.9346C11.9163 13.422 11.2404 13.8076 10.5165 14.0765L8.36439 12.8588C8.29931 12.8218 8.22594 12.8023 8.15128 12.8022H8.1411C8.05091 12.8022 7.95927 12.8022 7.86908 12.8022C7.79105 12.8003 7.71394 12.8196 7.64579 12.8581L5.48783 14.0757C4.76309 13.8083 4.08612 13.4236 3.48333 12.9368L3.4746 10.4978C3.47437 10.4156 3.45145 10.3352 3.40841 10.2655C3.36186 10.1919 3.31604 10.1125 3.27313 10.0346C3.23443 9.964 3.17733 9.90551 3.10803 9.86546L0.96752 8.63238C0.843092 7.88296 0.843092 7.11783 0.96752 6.36842L3.10439 5.13975C3.17487 5.10002 3.23323 5.04153 3.27313 4.97063C3.31604 4.8971 3.36114 4.81548 3.40841 4.73975C3.45145 4.67004 3.47437 4.58957 3.4746 4.50739L3.48624 2.06549C4.08716 1.57834 4.76212 1.19272 5.48492 0.923587L7.63706 2.14123C7.70495 2.18037 7.78224 2.19972 7.86035 2.19711C7.95054 2.19711 8.04218 2.19711 8.13237 2.19711C8.2104 2.19901 8.28751 2.17971 8.35566 2.14123L10.5122 0.923587C11.2369 1.19107 11.9139 1.57573 12.5167 2.06255L12.5254 4.50151C12.5256 4.58368 12.5485 4.66416 12.5916 4.73386C12.6381 4.80739 12.684 4.8868 12.7269 4.96475C12.7656 5.03532 12.8227 5.09382 12.892 5.13386L15.0339 6.36768C15.1591 7.11697 15.1598 7.88211 15.0361 8.63164H15.0376Z" fill="white"/>
</svg>
