<svg width="14" height="13" viewBox="0 0 14 13" fill="none" xmlns="http://www.w3.org/2000/svg">
<path fill-rule="evenodd" clip-rule="evenodd" d="M0.477583 1.90673C0.472928 1.90744 0.468285 1.9081 0.463662 1.90876C0.449523 1.91077 0.43558 1.91275 0.422121 1.91593L0.477583 1.90673Z" fill="url(#paint0_linear_1_27)"/>
<path d="M12.5161 2.15829H3.01991V2.91463L13.5002 2.91469C13.6327 2.91469 13.7599 2.96782 13.8536 3.06239C13.9473 3.15695 14 3.28522 14 3.41896V12.4957C14 12.6295 13.9473 12.7577 13.8536 12.8523C13.7599 12.9469 13.6327 13 13.5002 13H0.504593C0.37203 13 0.244897 12.9469 0.15116 12.8523C0.0574239 12.7577 0.00476348 12.6295 0.00476348 12.4957L0 7.05906V2.53643C0 2.26535 0.0869517 2.08905 0.242404 1.99095C0.29669 1.95443 0.357721 1.92886 0.422121 1.91593L11.9182 0.00980605C11.9907 -0.00483733 12.0656 -0.00306145 12.1373 0.0150058C12.2091 0.0330731 12.276 0.0669815 12.3332 0.114285C12.3904 0.161589 12.4365 0.221109 12.4681 0.288554C12.4997 0.355998 12.5161 0.429685 12.5161 0.504301V2.15829ZM9.96143 8.79591C10.1258 8.90673 10.3191 8.96588 10.5168 8.96588C10.7819 8.96588 11.0362 8.85962 11.2237 8.67048C11.4111 8.48135 11.5165 8.22482 11.5165 7.95735C11.5165 7.75788 11.4578 7.56289 11.348 7.39703C11.2382 7.23118 11.082 7.10192 10.8994 7.02558C10.7167 6.94925 10.5157 6.92928 10.3218 6.96819C10.1279 7.00711 9.94975 7.10316 9.80995 7.24421C9.67014 7.38525 9.57493 7.56495 9.53636 7.76059C9.49779 7.95623 9.51758 8.15901 9.59325 8.34329C9.66891 8.52758 9.79704 8.68509 9.96143 8.79591Z" fill="url(#paint1_linear_1_27)"/>
<defs>
<linearGradient id="paint0_linear_1_27" x1="1.16667" y1="-5.41667" x2="9.47665" y2="15.3097" gradientUnits="userSpaceOnUse">
<stop stop-color="#1C1B20"/>
<stop offset="0.338294" stop-color="#D9D9D9"/>
<stop offset="0.604349" stop-color="white" stop-opacity="0.55"/>
<stop offset="1" stop-color="white"/>
</linearGradient>
<linearGradient id="paint1_linear_1_27" x1="1.16667" y1="-5.41667" x2="9.47665" y2="15.3097" gradientUnits="userSpaceOnUse">
<stop stop-color="#1C1B20"/>
<stop offset="0.338294" stop-color="#D9D9D9"/>
<stop offset="0.604349" stop-color="white" stop-opacity="0.55"/>
<stop offset="1" stop-color="white"/>
</linearGradient>
</defs>
</svg>
